<svg width="108" height="34" viewBox="0 0 108 34" fill="none" xmlns="http://www.w3.org/2000/svg">
<path d="M47.8095 19.1358V6.64203C47.8384 6.36368 47.6201 6.12053 47.3408 6.12053H42.6957C42.4549 6.12053 42.2494 6.30289 42.227 6.54285V8.17776C39.9285 6.47566 37.081 5.47104 33.9992 5.47104C27.3252 5.47104 21.7587 10.187 20.465 16.4547H9.9452V11.6236C9.9452 9.39355 10.5134 8.26735 11.6498 7.28192C12.7862 6.2933 14.0318 5.80058 16.3688 5.80058C17.4892 5.80058 18.4972 5.89657 19.4891 6.08853C20.2467 6.23571 20.9819 6.45327 21.7042 6.74762C22.022 6.87879 22.3687 6.63883 22.3687 6.29649V1.54853C22.3687 1.33737 22.2338 1.1486 22.0316 1.08461C21.1167 0.783862 20.1889 0.534306 19.2484 0.335941C18.1922 0.11198 17.0237 0 15.6465 0C12.7991 0 10.9436 0.495913 9.10734 1.48134C7.26789 2.46997 5.90677 3.84253 5.02717 5.59262C4.14758 7.34591 3.70778 9.38715 3.70778 11.7131V16.4547H0.423746C0.182981 16.4803 0 16.6819 0 16.925V21.5546C0 21.8362 0.243975 22.0537 0.523263 22.0217H3.70778V31.9112C3.70778 32.18 3.92607 32.3975 4.19573 32.3975H9.45725C9.72691 32.3975 9.9452 32.18 9.9452 31.9112V22.0217H20.465C21.7555 28.2926 27.3252 33.0086 33.9992 33.0086C37.081 33.0086 39.9285 32.0008 42.227 30.3019V31.9368C42.2527 32.1768 42.4549 32.3591 42.6989 32.3591H47.344C47.6265 32.3591 47.8448 32.116 47.8127 31.8376V19.3438C47.8127 19.3086 47.8127 19.2734 47.8127 19.2382C47.8127 19.203 47.8127 19.1678 47.8127 19.1326L47.8095 19.1358ZM33.996 27.4416C29.4536 27.4416 25.7683 23.7718 25.7683 19.2414C25.7683 14.711 29.4504 11.0413 33.996 11.0413C38.5417 11.0413 42.2238 14.711 42.2238 19.2414C42.2238 23.7718 38.5417 27.4416 33.996 27.4416Z" fill="#005BF7"/>
<path d="M101.751 0.550293H107.012C107.282 0.550293 107.5 0.767855 107.5 1.03661V4.16566C107.5 4.43441 107.282 4.65197 107.012 4.65197H101.751C101.481 4.65197 101.263 4.43441 101.263 4.16566V1.03661C101.263 0.767855 101.481 0.550293 101.751 0.550293Z" fill="#005BF7"/>
<path d="M107.022 5.50635H101.741C101.458 5.50635 101.24 5.80709 101.272 6.14943L101.272 30.2479C101.243 30.5934 101.462 30.891 101.741 30.891H107.022C107.262 30.891 107.468 30.667 107.49 30.3695V6.02786C107.465 5.73031 107.262 5.50635 107.018 5.50635H107.022Z" fill="#005BF7"/>
<path d="M99.3591 16.1028C99.3591 16.1028 99.3591 16.0804 99.3559 16.0676C97.9177 9.99504 92.4443 5.47423 85.9084 5.47423C82.8266 5.47423 79.9791 6.48205 77.6806 8.18095V0.799849C77.6549 0.659074 77.4527 0.550293 77.2087 0.550293H72.5636C72.2811 0.550293 72.0628 0.694268 72.0949 0.857439V8.18095C69.7964 6.47885 66.9489 5.47103 63.8671 5.47103C60.7853 5.47103 57.9379 6.47885 55.6394 8.17775V0.799849C55.6137 0.659074 55.4115 0.550293 55.1675 0.550293H50.5223C50.2398 0.550293 50.0215 0.694268 50.0504 0.857439V16.138C50.0504 16.3139 50.1949 16.4579 50.3714 16.4579H55.9058C56.0374 16.4579 56.153 16.3747 56.2012 16.2531C57.3986 13.2041 60.3776 11.0445 63.8639 11.0445C67.3502 11.0445 70.326 13.2041 71.5267 16.2531C71.5748 16.3747 71.6904 16.4579 71.822 16.4579H77.9471C78.0787 16.4579 78.1942 16.3747 78.2424 16.2531C79.4398 13.2041 82.4189 11.0445 85.9052 11.0445C89.3914 11.0445 92.3673 13.2041 93.5679 16.2531H93.5615C93.8697 17.0274 94.0591 17.8561 94.1136 18.7199C94.1907 19.9613 93.9916 21.1483 93.5679 22.2233C93.5679 22.2233 93.5679 22.2265 93.5679 22.2297C92.3705 25.2788 89.3914 27.4416 85.9052 27.4416C82.4189 27.4416 79.4398 25.282 78.2424 22.2297C78.1942 22.1081 78.0787 22.0249 77.9471 22.0249H71.822C71.6904 22.0249 71.5748 22.1081 71.5267 22.2297C70.3293 25.2788 67.3502 27.4416 63.8639 27.4416C60.3776 27.4416 57.3986 25.282 56.2012 22.2297C56.153 22.1081 56.0374 22.0249 55.9058 22.0249H50.7342C50.5287 22.0249 50.3714 22.2169 50.4196 22.4153C51.8578 28.491 57.3312 33.0118 63.8671 33.0118C68.3678 33.0118 72.3645 30.865 74.8877 27.544C77.411 30.865 81.4077 33.0118 85.9084 33.0118C92.4411 33.0118 97.9177 28.491 99.3559 22.4153C99.6352 21.2315 99.7636 19.9869 99.7154 18.7071C99.6801 17.8145 99.5613 16.9442 99.3591 16.1028Z" fill="#005BF7"/>
</svg>
